<svg width="444" height="378" viewBox="0 0 444 378" fill="none" xmlns="http://www.w3.org/2000/svg">
<path d="M443.224 45.1161C426.932 52.6844 409.426 57.7994 391.052 60.1005C409.809 48.3231 424.21 29.6732 430.991 7.45196C413.161 18.5369 393.654 26.347 373.311 30.5447C356.741 12.0506 333.136 0.492432 307.009 0.492432C256.843 0.492432 216.171 43.1012 216.171 95.6537C216.171 103.113 216.975 110.375 218.523 117.342C143.032 113.372 76.1007 75.4872 31.2986 17.9121C23.4814 31.967 19.002 48.3159 19.002 65.7537C19.002 98.7702 35.0395 127.897 59.4113 144.963C44.9866 144.49 30.8792 140.408 18.267 133.059C18.2618 133.457 18.2618 133.856 18.2618 134.256C18.2618 180.364 49.5723 218.827 91.1247 227.57C77.7487 231.381 63.7182 231.938 50.105 229.2C61.6631 267.007 95.2097 294.519 134.957 295.29C103.869 320.812 64.7018 336.027 22.1462 336.027C14.8132 336.027 7.58402 335.575 0.4776 334.697C40.6758 361.698 88.4215 377.452 139.718 377.452C306.798 377.452 398.161 232.444 398.161 106.69C398.161 102.563 398.074 98.4586 397.898 94.3782C415.681 80.91 431.03 64.2283 443.224 45.1161Z" fill="#55ACEE"/>
</svg>
